<svg width="229" height="62" viewBox="0 0 229 62" fill="none" xmlns="http://www.w3.org/2000/svg">
<path d="M42.1128 61.2016H25.8226C30.4449 55.8553 42.14 32.9921 36.5151 23.1053C32.4774 15.9477 19.5464 12.8338 0 14.1999V0.323899C25.6196 -1.42992 41.6675 3.94663 48.6585 16.2567C57.4851 31.9077 47.3469 52.4022 42.1128 61.2016Z" fill="white"/>
<path d="M0 61.2106H13.9245V21.6453L0 14.0424V61.2106Z" fill="#6E7D91"/>
<path d="M68.1427 41.068C68.1427 40.9014 68.2942 40.7681 68.4638 40.7681H68.8879L75.9304 48.159H75.9456V41.2528C75.9456 41.0862 76.0819 40.9347 76.2666 40.9347H77.8236C77.9932 40.9347 78.1446 41.0862 78.1446 41.2528V52.5026C78.1446 52.6692 77.9932 52.8025 77.8236 52.8025H77.4177L70.3388 45.13H70.3206V52.3179C70.3206 52.4845 70.1843 52.6359 69.9995 52.6359H68.4578C68.2881 52.6359 68.1367 52.4845 68.1367 52.3179V41.068H68.1427Z" fill="#6E7D91"/>
<path d="M86.732 41.2528C86.732 41.0862 86.8683 40.9348 87.053 40.9348H93.9441C94.1289 40.9348 94.2652 41.0862 94.2652 41.2528V42.6219C94.2652 42.7885 94.1289 42.94 93.9441 42.94H88.9341V45.6843H93.1142C93.2838 45.6843 93.4352 45.8358 93.4352 46.0024V47.3927C93.4352 47.5744 93.2838 47.7107 93.1142 47.7107H88.9341V50.6368H93.9441C94.1289 50.6368 94.2652 50.7882 94.2652 50.9548V52.327C94.2652 52.4936 94.1289 52.645 93.9441 52.645H87.053C86.8652 52.645 86.732 52.4936 86.732 52.327V41.2528Z" fill="#6E7D91"/>
<path d="M103.782 42.94H101.193C101.008 42.94 100.872 42.7885 100.872 42.6219V41.2528C100.872 41.0862 101.008 40.9348 101.193 40.9348H108.593C108.777 40.9348 108.914 41.0862 108.914 41.2528V42.6219C108.914 42.7885 108.777 42.94 108.593 42.94H106V52.3209C106 52.4875 105.848 52.639 105.679 52.639H104.104C103.934 52.639 103.782 52.4875 103.782 52.3209V42.94Z" fill="#6E7D91"/>
<path d="M115.126 41.3346C115.057 41.1013 115.193 40.9347 115.429 40.9347H116.986C117.122 40.9347 117.259 41.0498 117.292 41.168L119.052 47.8379H119.121L121.811 40.9529C121.845 40.8529 121.929 40.7681 122.099 40.7681H122.402C122.572 40.7681 122.656 40.8529 122.69 40.9529L125.398 47.8379H125.467L127.194 41.168C127.227 41.0498 127.364 40.9347 127.5 40.9347H129.057C129.293 40.9347 129.429 41.1013 129.36 41.3346L126.161 52.5693C126.128 52.7056 125.991 52.8025 125.855 52.8025H125.585C125.434 52.8025 125.331 52.7207 125.298 52.6208L122.266 45.0451H122.181L119.185 52.6208C119.134 52.7207 119.067 52.8025 118.897 52.8025H118.628C118.491 52.8025 118.355 52.7056 118.325 52.5693L115.126 41.3346Z" fill="#6E7D91"/>
<path d="M142.045 40.7681C145.432 40.7681 148.14 43.4579 148.14 46.802C148.14 50.146 145.432 52.8025 142.045 52.8025C138.659 52.8025 135.966 50.143 135.966 46.802C135.966 43.4609 138.659 40.7681 142.045 40.7681ZM142.045 50.6307C144.178 50.6307 145.938 48.9072 145.938 46.802C145.938 44.6968 144.178 42.9399 142.045 42.9399C139.91 42.9399 138.168 44.6968 138.168 46.802C138.168 48.9102 139.91 50.6307 142.045 50.6307Z" fill="#6E7D91"/>
<path d="M155.861 41.2528C155.861 41.0862 155.997 40.9348 156.182 40.9348H161.025C163.058 40.9348 164.715 42.5402 164.715 44.5272C164.715 46.066 163.682 47.32 162.21 47.9076L164.53 52.1513C164.648 52.3694 164.53 52.6359 164.242 52.6359H162.464C162.313 52.6359 162.228 52.5511 162.194 52.4845L159.944 48.056H158.066V52.3179C158.066 52.4845 157.914 52.6359 157.745 52.6359H156.188C156 52.6359 155.867 52.4845 155.867 52.3179V41.2528H155.861ZM160.837 46.2689C161.734 46.2689 162.516 45.5026 162.516 44.5666C162.516 43.6791 161.737 42.943 160.837 42.943H158.078V46.2689H160.837Z" fill="#6E7D91"/>
<path d="M172.639 41.3346C172.639 41.1195 172.808 40.9348 173.044 40.9348H174.535C174.756 40.9348 174.941 41.1165 174.941 41.3346V45.8479L179.209 41.1014C179.275 41.0166 179.378 40.9348 179.53 40.9348H181.223C181.544 40.9348 181.714 41.2831 181.492 41.5345L177.073 46.4506L181.814 52.0513C181.983 52.2664 181.847 52.6359 181.511 52.6359H179.666C179.496 52.6359 179.393 52.5663 179.36 52.5178L174.941 47.1352V52.2331C174.941 52.4512 174.756 52.6329 174.535 52.6329H173.044C172.808 52.6329 172.639 52.4512 172.639 52.2331V41.3346Z" fill="#6E7D91"/>
<path d="M189.18 41.2528C189.18 41.0862 189.332 40.9348 189.501 40.9348H191.073C191.243 40.9348 191.394 41.0862 191.394 41.2528V52.3209C191.394 52.4875 191.243 52.639 191.073 52.639H189.501C189.332 52.639 189.18 52.4875 189.18 52.3209V41.2528Z" fill="#6E7D91"/>
<path d="M199.982 41.068C199.982 40.9014 200.133 40.7681 200.303 40.7681H200.727L207.769 48.159H207.785V41.2528C207.785 41.0862 207.921 40.9347 208.106 40.9347H209.663C209.832 40.9347 209.984 41.0862 209.984 41.2528V52.5026C209.984 52.6692 209.832 52.8025 209.663 52.8025H209.257L202.178 45.13H202.16V52.3179C202.16 52.4845 202.023 52.6359 201.839 52.6359H200.297C200.127 52.6359 199.976 52.4845 199.976 52.3179V41.068H199.982Z" fill="#6E7D91"/>
<path d="M223.802 40.7681C225.326 40.7681 226.783 41.3558 227.934 42.3251C228.07 42.4583 228.085 42.6582 227.949 42.7915L226.901 43.882C226.765 44.0122 226.613 44.0122 226.459 43.882C225.732 43.2459 224.832 42.9097 223.902 42.9097C221.785 42.9097 220.11 44.6998 220.11 46.7868C220.11 48.8617 221.785 50.6155 223.917 50.6155C224.865 50.6155 225.595 50.3308 225.932 50.1975V48.7769H224.578C224.393 48.7769 224.256 48.6436 224.256 48.477V47.1564C224.256 46.9746 224.393 46.8383 224.578 46.8383H227.828C227.997 46.8383 228.134 46.9898 228.134 47.1564V51.4364C228.134 51.5697 228.064 51.6545 227.997 51.703C227.997 51.703 226.253 52.7904 223.799 52.7904C220.431 52.7904 217.72 50.1491 217.72 46.805C217.72 43.4609 220.434 40.7681 223.802 40.7681Z" fill="#6E7D91"/>
<path d="M68.1427 8.97233C68.1427 8.63611 68.4093 8.33319 68.7455 8.33319H76.6907C83.1607 8.33319 88.4585 13.5977 88.4585 20.0344C88.4585 26.5377 83.1637 31.8022 76.6907 31.8022H68.7455C68.4093 31.8022 68.1427 31.4993 68.1427 31.1661V8.97233ZM76.2878 27.713C80.6466 27.713 83.8301 24.4265 83.8301 20.0374C83.8301 15.6786 80.6436 12.3921 76.2878 12.3921H72.4652V27.713H76.2878Z" fill="white"/>
<path d="M96.2523 8.97233C96.2523 8.63611 96.5188 8.33319 96.8883 8.33319H110.534C110.904 8.33319 111.173 8.63611 111.173 8.97233V11.7197C111.173 12.0559 110.907 12.3588 110.534 12.3588H100.611V17.8565H108.892C109.229 17.8565 109.532 18.1564 109.532 18.4926V21.2733C109.532 21.6428 109.229 21.9094 108.892 21.9094H100.611V27.7766H110.534C110.904 27.7766 111.173 28.0795 111.173 28.4127V31.1631C111.173 31.4963 110.907 31.7992 110.534 31.7992H96.8883C96.5188 31.7992 96.2523 31.4963 96.2523 31.1631V8.97233Z" fill="white"/>
<path d="M119.331 8.97233C119.331 8.63611 119.597 8.33319 119.967 8.33319H133.612C133.982 8.33319 134.252 8.63611 134.252 8.97233V11.7197C134.252 12.0559 133.982 12.3588 133.612 12.3588H123.689V18.6592H131.971C132.307 18.6592 132.61 18.9621 132.61 19.2983V22.0487C132.61 22.3819 132.307 22.6848 131.971 22.6848H123.689V31.1661C123.689 31.4993 123.386 31.8022 123.053 31.8022H119.967C119.597 31.8022 119.331 31.4993 119.331 31.1661V8.97233Z" fill="white"/>
<path d="M141.603 8.97233C141.603 8.63611 141.906 8.33319 142.239 8.33319H145.356C145.692 8.33319 145.995 8.63611 145.995 8.97233V31.1661C145.995 31.4993 145.692 31.8022 145.356 31.8022H142.239C141.906 31.8022 141.603 31.4993 141.603 31.1661V8.97233Z" fill="white"/>
<path d="M155.458 8.60278C155.458 8.26958 155.761 8 156.094 8H156.933L170.879 22.8181H170.912V8.97233C170.912 8.63611 171.182 8.33319 171.551 8.33319H174.635C174.971 8.33319 175.274 8.63611 175.274 8.97233V31.5326C175.274 31.8688 174.971 32.1354 174.635 32.1354H173.829L159.817 16.7479H159.783V31.1631C159.783 31.4963 159.517 31.7992 159.147 31.7992H156.097C155.764 31.7992 155.461 31.4963 155.461 31.1631V8.60278H155.458Z" fill="white"/>
<path d="M184.743 8.97233C184.743 8.63611 185.009 8.33319 185.379 8.33319H199.025C199.394 8.33319 199.664 8.63611 199.664 8.97233V11.7197C199.664 12.0559 199.397 12.3588 199.025 12.3588H189.101V17.8565H197.383C197.719 17.8565 198.022 18.1564 198.022 18.4926V21.2733C198.022 21.6428 197.719 21.9094 197.383 21.9094H189.101V27.7766H199.025C199.394 27.7766 199.664 28.0795 199.664 28.4127V31.1631C199.664 31.4963 199.397 31.7992 199.025 31.7992H185.379C185.009 31.7992 184.743 31.4963 184.743 31.1631V8.97233Z" fill="white"/>
<path d="M207.821 8.97233C207.821 8.63611 208.087 8.33319 208.424 8.33319H216.369C222.839 8.33319 228.137 13.5977 228.137 20.0344C228.137 26.5377 222.842 31.8022 216.369 31.8022H208.424C208.087 31.8022 207.821 31.4993 207.821 31.1661V8.97233ZM215.966 27.713C220.325 27.713 223.508 24.4265 223.508 20.0374C223.508 15.6786 220.322 12.3921 215.966 12.3921H212.143V27.713H215.966Z" fill="white"/>
</svg>
