<svg width="760" height="288" viewBox="0 0 760 288" fill="none" xmlns="http://www.w3.org/2000/svg">
<path d="M464.855 288C458.308 288 452.649 286.946 447.877 284.837C443.106 282.729 439.444 279.733 436.892 275.849C434.34 271.854 433.063 267.138 433.063 261.701C433.063 256.597 434.229 252.102 436.559 248.219C438.889 244.224 442.44 240.895 447.212 238.232C452.094 235.568 458.142 233.682 465.355 232.572L493.152 228.078V246.388L469.849 250.549C466.298 251.215 463.579 252.38 461.693 254.044C459.806 255.598 458.863 257.873 458.863 260.869C458.863 263.643 459.917 265.807 462.026 267.36C464.134 268.914 466.742 269.691 469.849 269.691C473.955 269.691 477.561 268.803 480.668 267.027C483.775 265.252 486.161 262.866 487.825 259.87C489.601 256.763 490.489 253.378 490.489 249.717V226.081C490.489 222.641 489.101 219.756 486.327 217.425C483.664 215.095 480.002 213.93 475.342 213.93C470.903 213.93 466.964 215.151 463.524 217.592C460.195 220.033 457.753 223.251 456.2 227.246L436.226 217.758C438.001 212.654 440.831 208.271 444.715 204.609C448.599 200.947 453.259 198.117 458.697 196.12C464.134 194.122 470.071 193.124 476.507 193.124C484.163 193.124 490.932 194.511 496.814 197.285C502.695 200.059 507.244 203.943 510.462 208.936C513.791 213.819 515.456 219.534 515.456 226.081V286.003H492.153V271.355L497.812 270.356C495.149 274.351 492.209 277.68 488.991 280.343C485.772 282.896 482.166 284.782 478.171 286.003C474.177 287.334 469.738 288 464.855 288Z" fill="white"/>
<path d="M401.809 286.002V160H426.777V286.002H401.809Z" fill="white"/>
<path d="M343.114 288C335.79 288 329.521 286.446 324.305 283.339C319.201 280.121 315.317 275.683 312.654 270.023C309.991 264.364 308.659 257.762 308.659 250.216V195.121H333.627V248.218C333.627 251.658 334.292 254.71 335.624 257.373C337.067 259.925 339.064 261.923 341.616 263.365C344.168 264.808 347.054 265.529 350.272 265.529C353.601 265.529 356.486 264.808 358.927 263.365C361.479 261.923 363.421 259.925 364.753 257.373C366.195 254.71 366.916 251.658 366.916 248.218V195.121H391.884V286.003H368.581V268.026L369.913 272.021C367.804 277.458 364.364 281.508 359.593 284.172C354.932 286.724 349.439 288 343.114 288Z" fill="white"/>
<path d="M257.75 288C251.536 288 245.766 286.89 240.439 284.671C235.224 282.34 231.007 278.956 227.789 274.517L230.119 269.357V286.002H206.816V160H231.784V212.432L227.955 207.438C230.952 202.888 235.002 199.393 240.106 196.952C245.322 194.4 251.258 193.123 257.916 193.123C266.572 193.123 274.395 195.232 281.386 199.449C288.377 203.665 293.925 209.38 298.031 216.593C302.136 223.695 304.189 231.684 304.189 240.562C304.189 249.328 302.136 257.317 298.031 264.53C294.036 271.743 288.543 277.458 281.552 281.675C274.561 285.891 266.627 288 257.75 288ZM254.754 265.529C259.414 265.529 263.52 264.475 267.071 262.366C270.622 260.258 273.396 257.317 275.394 253.545C277.391 249.772 278.39 245.444 278.39 240.562C278.39 235.679 277.391 231.407 275.394 227.745C273.396 223.972 270.622 221.031 267.071 218.923C263.52 216.704 259.414 215.594 254.754 215.594C250.315 215.594 246.32 216.648 242.769 218.757C239.33 220.865 236.611 223.806 234.613 227.578C232.727 231.351 231.784 235.679 231.784 240.562C231.784 245.444 232.727 249.772 234.613 253.545C236.611 257.317 239.33 260.258 242.769 262.366C246.32 264.475 250.315 265.529 254.754 265.529Z" fill="white"/>
<path d="M157.16 288C147.506 288 139.128 285.892 132.026 281.675C124.925 277.347 119.432 271.577 115.548 264.364C111.664 257.151 109.722 249.162 109.722 240.395C109.722 231.296 111.72 223.196 115.714 216.094C119.82 208.992 125.313 203.388 132.193 199.282C139.073 195.177 146.84 193.124 155.496 193.124C162.709 193.124 169.089 194.289 174.637 196.619C180.186 198.839 184.846 202.001 188.619 206.107C192.503 210.213 195.444 214.984 197.441 220.421C199.438 225.748 200.437 231.574 200.437 237.899C200.437 239.674 200.326 241.45 200.104 243.225C199.993 244.89 199.716 246.332 199.272 247.553H131.194V229.243H185.124L173.306 237.899C174.416 233.127 174.36 228.91 173.139 225.249C171.919 221.476 169.755 218.535 166.648 216.427C163.652 214.207 159.934 213.098 155.496 213.098C151.168 213.098 147.451 214.152 144.344 216.26C141.237 218.369 138.906 221.476 137.353 225.581C135.799 229.687 135.189 234.681 135.522 240.562C135.078 245.666 135.688 250.16 137.353 254.044C139.017 257.928 141.569 260.98 145.009 263.199C148.449 265.307 152.611 266.362 157.493 266.362C161.932 266.362 165.705 265.474 168.812 263.698C172.03 261.923 174.526 259.482 176.302 256.375L196.276 265.862C194.5 270.301 191.671 274.185 187.787 277.514C184.014 280.843 179.52 283.45 174.305 285.337C169.089 287.112 163.374 288 157.16 288Z" fill="white"/>
<path d="M0 286.002V161.997H19.8075L86.3873 249.716L75.7345 252.213V161.997H101.534V286.002H81.5603L16.1456 197.618L25.7997 195.121V286.002H0Z" fill="white"/>
<path d="M752.057 110.838C742.529 101.31 727.081 101.31 717.553 110.838L717.55 110.842C702.461 125.935 716.472 135.641 677.658 174.455C653.978 198.135 642.812 205.185 631.294 205.11C621.463 205.185 608.609 198.135 584.929 174.454C546.112 135.637 560.129 125.933 545.033 110.838C544.14 109.944 543.179 109.162 542.191 108.436C530.229 98.906 518.451 106 482.136 69.6845C443.319 30.8674 456.258 22.2416 441.162 7.14606C431.634 -2.38202 416.186 -2.38202 406.658 7.14606L406.654 7.15014C393.722 20.0874 404.498 30.8716 365.684 69.6848C326.874 108.496 318.244 95.5674 303.153 110.652L303.146 110.658C293.618 120.186 293.618 135.635 303.146 145.163C312.674 154.69 328.122 154.69 337.65 145.163C352.746 130.067 338.728 120.363 377.545 81.5456C401.226 57.865 414.08 50.8152 423.91 50.8902C435.428 50.8152 446.595 57.8653 470.275 81.5453C509.088 120.359 495.077 130.065 510.167 145.158L510.17 145.162C510.94 145.932 511.76 146.617 512.602 147.263C526.493 159.323 536.063 149.31 573.068 186.315C611.881 225.129 601.105 235.913 614.038 248.85L614.041 248.854C623.569 258.382 639.017 258.382 648.545 248.854C663.641 233.758 650.702 225.133 689.519 186.316C728.336 147.498 739.118 158.281 752.057 145.342C761.585 135.814 761.585 120.366 752.057 110.838Z" fill="#9E7BEA"/>
</svg>
